<?xml version="1.0" standalone="no"?>
<!DOCTYPE svg PUBLIC "-//W3C//DTD SVG 20010904//EN"
 "http://www.w3.org/TR/2001/REC-SVG-20010904/DTD/svg10.dtd">
<svg version="1.0" xmlns="http://www.w3.org/2000/svg"
 width="597.000000pt" height="597.000000pt" viewBox="0 0 597.000000 597.000000"
 preserveAspectRatio="xMidYMid meet">
<metadata>
Created by potrace 1.11, written by Peter Selinger 2001-2013
</metadata>
<g transform="translate(0.000000,597.000000) scale(0.100000,-0.100000)"
fill="#000000" stroke="none">
<path d="M2215 4899 c-495 -43 -819 -188 -935 -419 -41 -81 -49 -107 -59 -199
-17 -141 16 -261 98 -353 l41 -46 -53 -12 c-277 -64 -513 -181 -949 -472 -81
-54 -153 -98 -159 -98 -20 0 -67 -39 -88 -73 -21 -35 -48 -129 -60 -207 -5
-37 -10 -46 -28 -48 -19 -3 -23 -10 -23 -38 0 -36 -14 -13 610 -1019 146 -236
293 -477 325 -535 75 -135 175 -288 212 -322 l28 -27 185 88 c304 145 590 265
1110 466 118 46 286 113 373 150 213 90 274 102 438 85 201 -21 298 -1 447 89
77 47 80 48 183 54 133 7 271 43 380 98 l84 42 305 39 c352 44 943 111 1141
129 l137 12 6 60 c3 33 6 81 6 107 l0 47 -87 68 c-48 38 -118 89 -155 114 -80
54 -88 72 -64 147 17 55 15 74 -8 74 -8 0 -19 7 -26 15 -7 8 -21 15 -32 15
-11 0 -119 71 -241 158 -274 195 -321 227 -787 542 -206 139 -453 307 -548
373 l-173 119 -63 -11 c-34 -6 -103 -14 -153 -17 l-90 -7 8 54 c49 344 -105
589 -444 705 -143 49 -274 64 -545 63 -136 -1 -292 -6 -347 -10z m594 -254
c43 -22 98 -91 121 -151 26 -70 41 -198 34 -292 -9 -129 2 -118 -121 -125 -60
-4 -127 -10 -150 -13 l-43 -7 0 281 0 281 26 20 c32 25 92 28 133 6z m-801
-467 l2 -427 -57 34 c-32 18 -81 41 -109 51 l-51 18 46 45 c26 25 55 64 66 86
24 49 32 169 15 220 -27 81 -120 145 -192 131 -18 -3 -55 -22 -82 -41 -81 -57
-126 -43 -126 40 0 136 216 278 415 272 l70 -2 3 -427z m2008 -221 c98 -68
298 -203 444 -302 455 -307 668 -453 879 -604 204 -145 204 -145 170 -153 -50
-10 -333 -27 -659 -38 -517 -18 -717 -55 -961 -176 l-86 -43 -26 47 c-14 26
-95 182 -180 347 -190 370 -268 500 -365 608 -19 20 -29 37 -23 37 28 0 107
47 159 94 67 61 126 149 149 222 l17 54 65 1 c51 0 182 16 232 28 3 0 87 -54
185 -122z m-1080 35 c-45 -167 -122 -236 -241 -214 l-40 7 0 115 0 115 80 11
c44 6 110 12 147 13 l66 1 -12 -48z m-1431 -169 c43 -11 78 -13 125 -8 131 15
178 4 329 -80 l54 -30 -6 -765 c-6 -778 -7 -771 27 -850 5 -12 -65 -52 -301
-177 -170 -89 -345 -180 -390 -202 l-81 -40 -130 197 c-71 108 -247 386 -392
617 -144 231 -318 502 -386 602 l-123 182 171 111 c436 286 671 401 918 449
30 6 64 13 75 15 11 2 27 2 35 -1 8 -2 42 -11 75 -20z m1228 -428 c35 -66 117
-225 182 -354 l117 -235 -191 184 -191 183 0 180 c0 105 4 177 9 172 5 -6 38
-64 74 -130z m-2397 -363 c72 -108 245 -379 384 -602 139 -223 309 -490 378
-595 l125 -190 -13 -135 c-8 -74 -16 -162 -19 -194 l-6 -60 -311 490 c-171
269 -413 653 -537 854 l-225 365 8 75 c12 106 45 190 74 190 6 0 70 -89 142
-198z m2835 -500 l66 -129 -141 -6 c-146 -6 -245 -21 -378 -55 l-78 -20 0 102
c0 57 3 231 7 389 l6 286 226 -219 226 -219 66 -129z m2416 261 c-3 -30 0 -61
9 -82 8 -18 14 -46 14 -61 0 -15 14 -71 30 -125 17 -54 30 -98 30 -100 0 -1
-183 -5 -407 -8 -636 -11 -877 -37 -1115 -123 l-70 -26 -50 49 c-55 54 -191
250 -182 265 10 16 138 75 229 106 205 68 363 87 885 107 344 13 587 30 599
41 2 2 11 4 19 4 12 0 13 -10 9 -47z m-2322 -451 c6 -4 29 -37 51 -73 41 -65
41 -66 23 -90 -33 -46 -59 -128 -59 -188 l0 -58 -147 -7 c-303 -13 -539 -64
-825 -177 -140 -56 -328 -152 -603 -309 -288 -164 -455 -254 -461 -248 -2 3 0
27 5 54 6 27 15 112 21 189 16 207 10 191 97 231 42 19 217 109 389 200 l313
166 65 -32 c54 -27 81 -33 154 -38 206 -11 341 86 342 248 0 19 4 41 9 48 13
22 245 73 386 85 79 7 230 7 240 -1z"/>
</g>
</svg>
